<?xml version="1.0" encoding="UTF-8"?><svg id="b" xmlns="http://www.w3.org/2000/svg" viewBox="0 0 52 52"><defs><style>.d{fill:#f07778;stroke-width:0px;}</style></defs><g id="c"><polygon class="d" points="25.05 13.94 19.99 16.87 25.05 19.79 25.05 13.94"/><polygon class="d" points="25.05 28.92 25.05 23.08 19.99 26 25.05 28.92"/><polygon class="d" points="24.11 21.43 18.09 17.96 12.08 21.43 18.09 24.9 24.11 21.43"/><polygon class="d" points="26.95 23.08 26.95 28.92 32.01 26 26.95 23.08"/><polygon class="d" points="26.95 13.94 26.95 19.79 32.01 16.87 26.95 13.94"/><path class="d" d="M42,0H10C4.48,0,0,4.48,0,10v32c0,5.52,4.48,10,10,10h32c5.52,0,10-4.48,10-10V10c0-5.52-4.48-10-10-10ZM42.29,29.74c.45.26.61.84.35,1.3-.08.14-.2.26-.35.35l-15.82,9.13c-.14.08-.31.13-.47.13-.17,0-.33-.04-.47-.13l-15.82-9.13c-.45-.26-.61-.84-.35-1.29.08-.14.2-.26.35-.35l6.49-3.74-6.49-3.75c-.45-.26-.61-.84-.35-1.29.08-.14.2-.26.35-.35l15.82-9.13s.06-.03.09-.04l.06-.02c.21-.08.44-.08.65,0l.06.02s.06.02.09.04l15.82,9.13c.45.26.61.84.35,1.29-.08.14-.2.26-.35.35l-6.49,3.74,6.49,3.74Z"/><path class="d" d="M26.47,31.39s-.06.03-.09.04l-.06.03c-.21.08-.44.08-.65,0-.02,0-.04-.01-.06-.02-.03-.01-.06-.03-.09-.04l-7.43-4.29-6.01,3.47,13.92,8.04,13.92-8.04-6.01-3.47-7.44,4.29Z"/><polygon class="d" points="27.9 21.43 33.91 24.91 39.92 21.43 33.91 17.96 27.9 21.43"/></g></svg>